<?xml version="1.0" standalone="no"?><!DOCTYPE svg PUBLIC "-//W3C//DTD SVG 1.1//EN" "http://www.w3.org/Graphics/SVG/1.1/DTD/svg11.dtd"><svg class="icon" height="512" viewBox="0 0 1024 1024" version="1.1" xmlns="http://www.w3.org/2000/svg"><path d="M460.8 390.3744m-179.1744 0a179.1744 179.1744 0 1 0 358.3488 0 179.1744 179.1744 0 1 0-358.3488 0Z" fill="#333232" /><path d="M460.8 0C206.3104 0 0 206.3104 0 460.8s206.3104 460.8 460.8 460.8 460.8-206.3104 460.8-460.8S715.2896 0 460.8 0z m320.5376 754.3808c-29.6192-73.2672-92.1344-144.9216-182.2976-144.9216-63.3856 0-80.6144 40.2944-144 40.2944-57.6 0-80.64-40.2944-144-40.2944-84.4032 0-146.7136 65.9456-176.4096 138.8544C66.9952 671.5392 25.6 571.1616 25.6 460.8 25.6 220.416 220.416 25.6 460.7744 25.6c240.384 0 435.2 194.816 435.2 435.2 0 113.3056-43.648 216.1408-114.6368 293.5808z" fill="#333232" /></svg>